<svg width="40" height="40" viewBox="0 0 40 40" fill="none" xmlns="http://www.w3.org/2000/svg">
<g id="&#208;&#161;&#208;&#176;&#208;&#188;&#208;&#190;&#208;&#187;&#208;&#181;&#209;&#130;&#208;&#184;&#208;&#186;">
<path id="Vector" d="M23.1098 36C21.7011 36 21.2759 34.8837 20.7973 33.3421L18.3257 25.2889C18.0598 24.2259 18.1129 23.7209 18.7244 23.1096L34.3258 6.28571C34.5117 6.0731 34.5117 5.8339 34.3258 5.67441C34.1663 5.56811 33.9536 5.51495 33.7411 5.70099L16.9967 21.4086C16.3323 21.9933 15.8007 21.9933 14.8173 21.701L6.52492 19.2026C5.03655 18.7508 4 18.2725 4 16.8903C4 15.774 4.98338 14.9768 6.25914 14.5248L32.598 4.42525C33.3158 4.15946 33.9005 4 34.4319 4C35.4153 4 36 4.61129 36 5.59469C36 6.12624 35.8673 6.71095 35.6015 7.42857L25.5815 33.6345C25.0233 35.0962 24.2259 36 23.1098 36Z" fill="#D93284"/>
</g>
</svg>
