<svg width="19" height="29" viewBox="0 0 19 29" fill="none" xmlns="http://www.w3.org/2000/svg">
<path id="Icon / chevron.left" d="M0 14.8482C0 15.3861 0.242871 15.8448 0.747296 16.2561L15.3196 28.3262C15.7119 28.6742 16.235 28.8482 16.8328 28.8482C18.0472 28.8482 19 28.0573 19 27.0132C19 26.507 18.7571 26.0482 18.3461 25.7002L5.21239 14.8482L18.3461 3.99624C18.7571 3.6324 19 3.17364 19 2.66743C19 1.63918 18.0472 0.848221 16.8328 0.848221C16.235 0.848221 15.7119 1.02223 15.3196 1.37025L0.747296 13.4403C0.242871 13.8516 0.0186824 14.3104 0 14.8482Z" fill="#E03FAB"/>
</svg>
