<svg width="90" height="90" viewBox="0 0 90 90" fill="none" xmlns="http://www.w3.org/2000/svg">
<circle cx="45" cy="45" r="39" fill="white" stroke="#D93284" stroke-width="2"/>
<path d="M32.0332 61C32.9052 61 33.6635 60.6587 34.2323 60.052L44.9621 49.2844L55.7677 60.052C56.3365 60.6208 57.057 61 57.929 61C59.5971 61 60.9621 59.635 60.9621 57.9287C60.9621 57.0567 60.659 56.3744 60.0524 55.7678L49.2843 44.9998L60.0902 34.1564C60.7347 33.5118 61 32.8673 61 32.0332C61 30.3649 59.6353 29 57.9668 29C57.1706 29 56.5261 29.3033 55.8816 29.9479L44.9621 40.7534L34.1564 29.9858C33.5877 29.3792 32.9052 29.0758 32.0332 29.0758C30.365 29.0758 29 30.4028 29 32.0711C29 32.9052 29.3412 33.6256 29.91 34.1943L40.6778 44.9998L29.91 55.8056C29.3412 56.3744 29 57.0946 29 57.9287C29 59.635 30.365 61 32.0332 61Z" fill="#D93284"/>
</svg>
