<svg width="280" height="280" viewBox="0 0 280 280" fill="none" xmlns="http://www.w3.org/2000/svg">
<g clip-path="url(#clip0_1502_3050)">
<rect width="280" height="280" fill="white"/>
<path d="M0 0V280H280V0H0ZM269.63 269.63H10.3704V10.3704H269.63V269.63Z" fill="#141414"/>
<path d="M36.0852 43.4068L115.268 122.591C116.278 123.601 117.604 124.108 118.929 124.108C120.255 124.108 121.58 123.601 122.59 122.591C124.614 120.566 124.614 117.294 122.59 115.27L43.4065 36.0854H104.136V25.7297H25.7297V104.137H36.0852V43.4068Z" fill="#D93284"/>
<path d="M236.593 243.915H175.864V254.27H254.27V175.864H243.915V236.593L164.732 157.41C162.707 155.386 159.435 155.386 157.41 157.41C155.386 159.435 155.386 162.707 157.41 164.732L236.593 243.915Z" fill="#D93284"/>
</g>
<defs>
<clipPath id="clip0_1502_3050">
<rect width="280" height="280" fill="white"/>
</clipPath>
</defs>
</svg>
