<svg width="40" height="42" viewBox="0 0 40 42" fill="none" xmlns="http://www.w3.org/2000/svg">
<path id="&#208;&#157;&#208;&#176;&#209;&#131;&#209;&#136;&#208;&#189;&#208;&#184;&#208;&#186;&#208;&#184;" d="M0 21.6831C0 27.6436 1.70923 34.2178 4.59725 39.3266C5.08841 40.1781 6.01179 40.4158 6.89586 39.9207C7.72102 39.4654 7.95676 38.5346 7.44597 37.6039C4.81335 32.7722 3.33988 27.0099 3.33988 21.6831C3.33988 10.693 9.99998 3.36634 20 3.36634C29.9803 3.36634 36.6601 10.693 36.6601 21.6831C36.6601 27.0099 35.167 32.7722 32.5343 37.6039C32.0236 38.5346 32.2593 39.4654 33.0845 39.9207C33.9685 40.4158 34.9115 40.1781 35.3831 39.3266C38.271 34.2178 40 27.6436 40 21.6831C40 8.65345 32.0236 0 20 0C7.95676 0 0 8.65345 0 21.6831ZM6.14931 38.8317C6.79764 41.1088 8.72297 42.1583 11.002 41.5049C13.2613 40.8515 14.3222 38.8712 13.6542 36.5939L10.8448 26.9307C10.1965 24.6733 8.2711 23.604 5.99214 24.2575C3.7328 24.9307 2.6719 26.8911 3.33988 29.188L6.14931 38.8317ZM33.831 38.8317L36.6405 29.188C37.3084 26.8712 36.2671 24.9307 33.9881 24.2575C31.7093 23.604 29.8034 24.6733 29.1355 26.9307L26.3261 36.5939C25.6581 38.891 26.719 40.8515 28.9784 41.5049C31.2769 42.1583 33.1827 41.1088 33.831 38.8317Z" fill="#E03FAB"/>
</svg>
