<svg width="85" height="85" viewBox="0 0 85 85" fill="none" xmlns="http://www.w3.org/2000/svg">
<circle cx="42.5" cy="42.5" r="40" fill="#F060C0" stroke="white" stroke-width="4"/>
<path d="M36.936 50.784V41.312C39.7947 40.7147 42.312 39.712 44.4881 38.304C46.7066 36.896 47.816 35.2533 47.816 33.376C47.816 31.6693 47.112 30.3893 45.7041 29.536C44.3386 28.6827 42.5893 28.256 40.456 28.256C36.7867 28.256 32.968 29.4507 29 31.84V23.776C32.6267 21.2587 36.936 20 41.9281 20C46.1521 20 49.736 21.152 52.68 23.456C55.6241 25.7173 57.0961 28.832 57.0961 32.8C57.0961 35.872 55.9226 38.56 53.576 40.864C51.272 43.1253 48.584 44.7253 45.512 45.664V50.784H36.936ZM41.416 66.4C39.8373 66.4 38.5147 65.8667 37.448 64.8C36.3813 63.6907 35.848 62.3467 35.848 60.768C35.848 59.232 36.3813 57.9307 37.448 56.864C38.5147 55.7973 39.8373 55.264 41.416 55.264C42.9521 55.264 44.2533 55.7973 45.32 56.864C46.4293 57.9307 46.984 59.232 46.984 60.768C46.984 62.3467 46.4293 63.6907 45.32 64.8C44.2533 65.8667 42.9521 66.4 41.416 66.4Z" fill="white"/>
</svg>
