<svg width="90" height="90" viewBox="0 0 90 90" fill="none" xmlns="http://www.w3.org/2000/svg">
<rect x="7.5" y="7.5" width="75" height="75" rx="13.5" fill="white" stroke="#D93284" stroke-width="5"/>
<path d="M42.9167 70C41.8121 70 40.9167 69.1046 40.9167 68V37.8506C40.9167 36.746 41.8121 35.8506 42.9167 35.8506H48.1488C49.2534 35.8506 50.1488 36.746 50.1488 37.8506V68C50.1488 69.1046 49.2534 70 48.1488 70H42.9167ZM49.3631 30.9232C48.3155 32.0182 47.0278 32.5656 45.5 32.5656C43.9722 32.5656 42.6627 32.0182 41.5714 30.9232C40.5238 29.7826 40 28.4139 40 26.817C40 25.1746 40.5238 23.8059 41.5714 22.7109C42.6627 21.5703 43.9722 21 45.5 21C47.0278 21 48.3155 21.5703 49.3631 22.7109C50.4544 23.8059 51 25.1746 51 26.817C51 28.4139 50.4544 29.7826 49.3631 30.9232Z" fill="#D93284"/>
</svg>
