<svg width="40" height="40" viewBox="0 0 40 40" fill="none" xmlns="http://www.w3.org/2000/svg">
<g id="Frame 21">
<path id="Icon / chevron.left" d="M11 21C11 21.4994 11.2173 21.9254 11.6686 22.3073L24.707 33.5153C25.058 33.8384 25.5261 34 26.061 34C27.1475 34 28 33.2655 28 32.296C28 31.826 27.7827 31.4 27.4149 31.0768L15.6637 21L27.4149 10.9232C27.7827 10.5853 28 10.1593 28 9.68927C28 8.73446 27.1475 8 26.061 8C25.5261 8 25.058 8.16158 24.707 8.48475L11.6686 19.6927C11.2173 20.0746 11.0167 20.5006 11 21Z" fill="white"/>
</g>
</svg>
