<svg width="252" height="84" viewBox="0 0 252 84" fill="none" xmlns="http://www.w3.org/2000/svg">
<path d="M35.2437 70.0854C54.6758 70.0854 70.4857 54.3567 70.4857 35.0364C70.4857 15.7162 54.6758 1.90735e-06 35.2437 1.90735e-06V13.9138C46.9541 13.9138 56.4818 23.3904 56.4818 35.0364C56.4818 46.6825 46.9533 56.159 35.2437 56.159V70.0846V70.0854Z" fill="#D93284"/>
<path d="M35.2437 84V70.0854C23.5318 70.0854 14.004 60.6096 14.004 48.9628C14.004 37.3168 23.5326 27.8402 35.2437 27.8402V13.9263C15.8101 13.9263 0.000219345 29.6426 0.000219345 48.9628C0.000219345 68.283 15.8101 83.9992 35.2437 83.9992V84Z" fill="#D93284"/>
<path d="M84.7926 29.8989C85.704 30.8544 86.8432 31.3321 88.2102 31.3321C89.5772 31.3321 90.709 30.8544 91.6057 29.8989C92.517 28.9435 92.9727 27.7382 92.9727 26.283C92.9727 24.8277 92.517 23.6224 91.6057 22.667C90.709 21.7115 89.5772 21.2338 88.2102 21.2338C86.8432 21.2338 85.704 21.7115 84.7926 22.667C83.896 23.6224 83.4477 24.8277 83.4477 26.283C83.4477 27.7382 83.896 28.9435 84.7926 29.8989ZM93.9208 31.9936C92.4068 33.537 90.5032 34.3087 88.2102 34.3087C85.9171 34.3087 84.0062 33.537 82.4775 31.9936C80.9635 30.4355 80.2065 28.5319 80.2065 26.283C80.2065 24.034 80.9635 22.1378 82.4775 20.5944C83.9915 19.0363 85.9024 18.2572 88.2102 18.2572C90.5179 18.2572 92.4288 19.0363 93.9428 20.5944C95.4568 22.1378 96.2138 24.034 96.2138 26.283C96.2138 28.5319 95.4495 30.4355 93.9208 31.9936ZM99.0809 34V18.5659H102.234L106.71 24.96L111.186 18.5659H114.317V34H111.186V23.4387L107.636 28.3996H105.872L102.256 23.4387V34H99.0809ZM125.555 34.3087C123.174 34.3087 121.182 33.559 119.58 32.0597C117.992 30.5457 117.198 28.6201 117.198 26.283C117.198 23.9458 117.985 22.0276 119.558 20.5283C121.145 19.0142 123.144 18.2572 125.555 18.2572C127.054 18.2572 128.414 18.5806 129.634 19.2274V22.4244C128.473 21.6307 127.12 21.2338 125.577 21.2338C124.107 21.2338 122.88 21.7115 121.895 22.667C120.925 23.6224 120.439 24.8277 120.439 26.283C120.439 27.7529 120.939 28.9656 121.939 29.921C122.938 30.8617 124.195 31.3321 125.709 31.3321C127.385 31.3321 128.796 30.8838 129.942 29.9871V33.1842C128.664 33.9339 127.201 34.3087 125.555 34.3087ZM132.649 34V18.5659H135.824V24.6514L141.513 18.5659H145.393L138.845 25.6435L146.518 34H142.461L135.824 26.8783V34H132.649ZM146.872 34L153.486 18.4777H156.529L163.144 34H159.77L158.249 30.4281H151.722L150.201 34H146.872ZM152.715 27.8043H157.235L154.986 22.4465L152.715 27.8043ZM163.861 34L168.69 27.4074C167.675 27.0988 166.882 26.5696 166.308 25.8199C165.75 25.0556 165.47 24.1589 165.47 23.13C165.47 21.7777 165.948 20.6826 166.904 19.8447C167.859 18.9922 169.153 18.5659 170.784 18.5659H177.928V34H174.753V27.7602H172.063L167.521 34H163.861ZM170.961 25.0923H174.753V21.3441H170.961C170.24 21.3441 169.674 21.5057 169.263 21.8291C168.866 22.1525 168.668 22.6155 168.668 23.2182C168.668 23.8209 168.866 24.2839 169.263 24.6073C169.674 24.9306 170.24 25.0923 170.961 25.0923Z" fill="#D93284"/>
<path d="M87.659 65.4421V63.7443C85.2777 63.6561 83.4403 62.9579 82.1468 61.6497C80.8533 60.3415 80.2065 58.7907 80.2065 56.9974C80.2065 55.2041 80.8533 53.6534 82.1468 52.3451C83.4403 51.0369 85.2777 50.3387 87.659 50.2505V48.8394H90.856V50.2505C93.2226 50.3387 95.0526 51.0369 96.3461 52.3451C97.6544 53.6534 98.3085 55.2041 98.3085 56.9974C98.3085 58.7907 97.6544 60.3415 96.3461 61.6497C95.0526 62.9579 93.2226 63.6561 90.856 63.7443V65.4421H87.659ZM87.659 60.878V53.1168C86.3066 53.1462 85.2703 53.5137 84.5501 54.2193C83.8298 54.9101 83.4697 55.8362 83.4697 56.9974C83.4697 58.1439 83.8298 59.07 84.5501 59.7755C85.285 60.4811 86.3213 60.8486 87.659 60.878ZM90.856 53.1168V60.878C92.1789 60.8486 93.2079 60.4811 93.9428 59.7755C94.6778 59.07 95.0453 58.1439 95.0453 56.9974C95.0453 55.8362 94.6851 54.9101 93.9649 54.2193C93.2446 53.5137 92.2083 53.1462 90.856 53.1168ZM101.169 64.8467V49.4127H104.344V59.4669L111.819 49.4127H114.553V64.8467H111.4V54.7264L103.837 64.8467H101.169ZM116.421 64.7144V61.8481C116.73 61.9657 117.104 62.0245 117.545 62.0245C118.398 62.0245 118.957 61.4659 119.221 60.3488C119.5 59.2317 119.669 57.093 119.728 53.9326L119.794 49.4127H130.686V64.8467H127.533V52.2569H122.859L122.771 55.3879C122.683 58.9597 122.271 61.4439 121.536 62.8403C120.816 64.222 119.545 64.9129 117.722 64.9129C117.163 64.9129 116.73 64.8467 116.421 64.7144ZM132.768 64.8467L139.383 49.3245H142.426L149.04 64.8467H145.667L144.145 61.2749H137.619L136.098 64.8467H132.768ZM138.611 58.6511H143.131L140.882 53.2932L138.611 58.6511ZM151.08 64.8467V49.4127H157.827C159.488 49.4127 160.797 49.8389 161.752 50.6915C162.722 51.544 163.207 52.6685 163.207 54.0649C163.207 55.4467 162.722 56.5711 161.752 57.4384C160.797 58.3056 159.488 58.7393 157.827 58.7393H154.255V64.8467H151.08ZM154.255 56.0273H157.607C158.371 56.0273 158.967 55.8656 159.393 55.5422C159.819 55.2041 160.032 54.7264 160.032 54.109C160.032 53.4917 159.819 53.0213 159.393 52.6979C158.967 52.3598 158.371 52.1908 157.607 52.1908H154.255V56.0273ZM165.614 64.8467V49.4127H168.767L173.243 55.8068L177.719 49.4127H180.85V64.8467H177.719V54.2854L174.169 59.2464H172.405L168.789 54.2854V64.8467H165.614ZM188.318 60.7457C189.229 61.7011 190.369 62.1788 191.736 62.1788C193.103 62.1788 194.234 61.7011 195.131 60.7457C196.042 59.7902 196.498 58.5849 196.498 57.1297C196.498 55.6745 196.042 54.4692 195.131 53.5137C194.234 52.5583 193.103 52.0806 191.736 52.0806C190.369 52.0806 189.229 52.5583 188.318 53.5137C187.421 54.4692 186.973 55.6745 186.973 57.1297C186.973 58.5849 187.421 59.7902 188.318 60.7457ZM197.446 62.8403C195.932 64.3837 194.029 65.1554 191.736 65.1554C189.443 65.1554 187.532 64.3837 186.003 62.8403C184.489 61.2822 183.732 59.3787 183.732 57.1297C183.732 54.8807 184.489 52.9845 186.003 51.4411C187.517 49.883 189.428 49.104 191.736 49.104C194.043 49.104 195.954 49.883 197.468 51.4411C198.982 52.9845 199.739 54.8807 199.739 57.1297C199.739 59.3787 198.975 61.2822 197.446 62.8403ZM202.606 64.8467V49.4127H205.781V55.1894H212.749V49.4127H215.902V64.8467H212.749V58.0778H205.781V64.8467H202.606ZM219.315 64.8467V49.4127H222.49V59.4669L229.965 49.4127H232.699V64.8467H229.546V54.7264L221.983 64.8467H219.315ZM234.787 64.8467L239.616 58.2542C238.601 57.9455 237.808 57.4163 237.234 56.6667C236.676 55.9023 236.397 55.0057 236.397 53.9767C236.397 52.6244 236.874 51.5293 237.83 50.6915C238.785 49.8389 240.079 49.4127 241.71 49.4127H248.854V64.8467H245.679V58.607H242.989L238.447 64.8467H234.787ZM241.887 55.9391H245.679V52.1908H241.887C241.166 52.1908 240.601 52.3525 240.189 52.6759C239.792 52.9992 239.594 53.4623 239.594 54.0649C239.594 54.6676 239.792 55.1306 240.189 55.454C240.601 55.7774 241.166 55.9391 241.887 55.9391Z" fill="#D93284"/>
</svg>
