<svg width="1920" height="1080" viewBox="0 0 1920 1080" fill="none" xmlns="http://www.w3.org/2000/svg">
<g filter="url(#filter0_f_395_32039)">
<path d="M68.0418 491.994C202.309 569.513 374.311 523.872 451.407 390.339C528.502 256.806 481.977 85.1135 347.71 7.59453L292.188 103.761C373.101 150.476 401.119 253.983 354.647 334.475C308.174 414.967 204.521 442.453 123.613 395.741L68.045 491.988L68.0418 491.994Z" fill="#FAEBEB" fill-opacity="0.5"/>
<path d="M12.5167 588.165L68.0414 491.993C-12.8824 445.272 -40.9029 341.771 5.57233 261.273C52.0445 180.781 155.698 153.295 236.616 200.013L292.138 103.847C157.86 26.3218 -14.0925 71.8762 -91.1877 205.409C-168.283 338.942 -121.758 510.635 12.5198 588.16L12.5167 588.165Z" fill="#FAEBEB" fill-opacity="0.5"/>
<path d="M1632.45 491.994C1766.71 569.513 1938.72 523.872 2015.81 390.339C2092.91 256.806 2046.38 85.1135 1912.11 7.59453L1856.59 103.761C1937.51 150.476 1965.52 253.983 1919.05 334.475C1872.58 414.967 1768.92 442.453 1688.02 395.741L1632.45 491.988L1632.45 491.994Z" fill="#FAEBEB" fill-opacity="0.5"/>
<path d="M1576.92 588.165L1632.45 491.993C1551.52 445.272 1523.5 341.771 1569.98 261.273C1616.45 180.781 1720.1 153.295 1801.02 200.013L1856.54 103.847C1722.26 26.3218 1550.31 71.8762 1473.22 205.409C1396.12 338.942 1442.65 510.635 1576.92 588.16L1576.92 588.165Z" fill="#FAEBEB" fill-opacity="0.5"/>
<path d="M850.244 471.994C984.511 549.513 1156.51 503.872 1233.61 370.339C1310.7 236.806 1264.18 65.1135 1129.91 -12.4055L1074.39 83.7608C1155.3 130.476 1183.32 233.982 1136.85 314.475C1090.38 394.967 986.723 422.453 905.815 375.741L850.247 471.988L850.244 471.994Z" fill="#FAEBEB" fill-opacity="0.5"/>
<path d="M794.719 568.165L850.244 471.993C769.32 425.272 741.299 321.771 787.775 241.273C834.247 160.781 937.9 133.295 1018.82 180.013L1074.34 83.847C940.062 6.3218 768.11 51.8763 691.015 185.409C613.919 318.942 660.444 490.635 794.722 568.16L794.719 568.165Z" fill="#FAEBEB" fill-opacity="0.5"/>
</g>
<g filter="url(#filter1_f_395_32039)">
<path d="M68.0418 1173.75C202.309 1251.27 374.311 1205.63 451.407 1072.09C528.502 938.56 481.977 766.867 347.71 689.348L292.188 785.514C373.101 832.23 401.119 935.736 354.647 1016.23C308.174 1096.72 204.521 1124.21 123.613 1077.49L68.045 1173.74L68.0418 1173.75Z" fill="#FAEBEB" fill-opacity="0.5"/>
<path d="M12.5167 1269.92L68.0414 1173.75C-12.8824 1127.03 -40.9029 1023.52 5.57233 943.027C52.0445 862.535 155.698 835.048 236.616 881.767L292.138 785.601C157.86 708.075 -14.0925 753.63 -91.1877 887.163C-168.283 1020.7 -121.758 1192.39 12.5198 1269.91L12.5167 1269.92Z" fill="#FAEBEB" fill-opacity="0.5"/>
<path d="M1632.45 1173.75C1766.71 1251.27 1938.72 1205.63 2015.81 1072.09C2092.91 938.56 2046.38 766.867 1912.11 689.348L1856.59 785.514C1937.51 832.23 1965.52 935.736 1919.05 1016.23C1872.58 1096.72 1768.92 1124.21 1688.02 1077.49L1632.45 1173.74L1632.45 1173.75Z" fill="#FAEBEB" fill-opacity="0.5"/>
<path d="M1576.92 1269.92L1632.45 1173.75C1551.52 1127.03 1523.5 1023.52 1569.98 943.027C1616.45 862.535 1720.1 835.048 1801.02 881.767L1856.54 785.601C1722.26 708.075 1550.31 753.63 1473.22 887.163C1396.12 1020.7 1442.65 1192.39 1576.92 1269.91L1576.92 1269.92Z" fill="#FAEBEB" fill-opacity="0.5"/>
<path d="M850.244 1153.75C984.511 1231.27 1156.51 1185.63 1233.61 1052.09C1310.7 918.56 1264.18 746.867 1129.91 669.348L1074.39 765.514C1155.3 812.23 1183.32 915.736 1136.85 996.228C1090.38 1076.72 986.723 1104.21 905.815 1057.49L850.247 1153.74L850.244 1153.75Z" fill="#FAEBEB" fill-opacity="0.5"/>
<path d="M794.719 1249.92L850.244 1153.75C769.32 1107.03 741.299 1003.52 787.775 923.027C834.247 842.535 937.9 815.048 1018.82 861.767L1074.34 765.601C940.062 688.075 768.11 733.63 691.015 867.163C613.919 1000.7 660.444 1172.39 794.722 1249.91L794.719 1249.92Z" fill="#FAEBEB" fill-opacity="0.5"/>
</g>
<defs>
<filter id="filter0_f_395_32039" x="-241" y="-163" width="2406.62" height="901.753" filterUnits="userSpaceOnUse" color-interpolation-filters="sRGB">
<feFlood flood-opacity="0" result="BackgroundImageFix"/>
<feBlend mode="normal" in="SourceGraphic" in2="BackgroundImageFix" result="shape"/>
<feGaussianBlur stdDeviation="5" result="effect1_foregroundBlur_395_32039"/>
</filter>
<filter id="filter1_f_395_32039" x="-241" y="518.753" width="2406.62" height="901.753" filterUnits="userSpaceOnUse" color-interpolation-filters="sRGB">
<feFlood flood-opacity="0" result="BackgroundImageFix"/>
<feBlend mode="normal" in="SourceGraphic" in2="BackgroundImageFix" result="shape"/>
<feGaussianBlur stdDeviation="5" result="effect1_foregroundBlur_395_32039"/>
</filter>
</defs>
</svg>
