<svg width="128" height="215" viewBox="0 0 128 215" fill="none" xmlns="http://www.w3.org/2000/svg">
<rect width="123" height="211" transform="translate(2.5 2)" fill="white"/>
<path d="M107.929 2H20.0714C10.367 2 2.5 9.87233 2.5 19.5833V195.417C2.5 205.128 10.367 213 20.0714 213H107.929C117.633 213 125.5 205.128 125.5 195.417V19.5833C125.5 9.87233 117.633 2 107.929 2Z" stroke="#292929" stroke-width="4"/>
<path d="M46.4285 19.5833H81.5713" stroke="#292929" stroke-width="4" stroke-linecap="round"/>
<path d="M55.2144 195.417H72.7858" stroke="#292929" stroke-width="4" stroke-linecap="round"/>
<path fill-rule="evenodd" clip-rule="evenodd" d="M43.7401 114.593C45.3561 125.439 56.1529 133.453 68.237 130.998C75.9103 129.438 82.1472 123.437 83.7597 116.016C86.514 103.328 77.4754 92.1112 63.9244 92.1112V98.6668L46.9857 88.8334L63.9244 79V85.5556C80.8632 85.5556 93.8349 100.25 90.4641 117.039C88.4111 127.262 79.8808 135.502 69.3143 137.488C53.3004 140.497 39.126 129.858 37.0324 115.469C36.7478 113.515 38.3773 111.778 40.4133 111.778C42.0971 111.778 43.4996 112.981 43.7401 114.593Z" fill="#D93284"/>
</svg>
