<svg width="79" height="142" viewBox="0 0 79 142" fill="none" xmlns="http://www.w3.org/2000/svg">
<g filter="url(#filter0_f_317_3378)">
<circle cx="34.8824" cy="34.8824" r="30.8824" fill="url(#paint0_radial_317_3378)"/>
</g>
<path d="M65.7081 75.667C65.7081 76.0812 66.0439 76.417 66.4581 76.417C66.8723 76.417 67.2081 76.0812 67.2081 75.667C67.2081 74.2083 67.7872 72.8094 68.8179 71.7781C69.8486 70.7468 71.2464 70.1675 72.7039 70.1675C74.1613 70.1675 75.5591 70.7468 76.5898 71.7781C77.6205 72.8094 78.1997 74.2083 78.1997 75.667C78.1997 77.8999 78.1886 80.1666 78.1775 82.4326L78.1774 82.4391C78.1663 84.7023 78.1552 86.9649 78.1552 89.1889C78.1552 89.2033 78.1556 89.2177 78.1565 89.2321C78.4079 93.583 78.152 97.9484 77.3938 102.24C77.2005 102.991 76.3657 106.453 75.4492 110.255C74.9134 112.477 74.3497 114.815 73.8699 116.795H27.1348C23.0755 108.696 15.2567 93.1419 13.0595 89.1839C13.0589 89.1828 13.0583 89.1817 13.0577 89.1806L12.6389 88.4087C12.6353 88.402 12.6316 88.3954 12.6278 88.3888L10.6797 85.0441C10.0165 83.7839 9.86556 82.3159 10.2587 80.9467C10.6532 79.5728 11.5647 78.4056 12.8015 77.6905C14.0382 76.9754 15.5038 76.7681 16.8901 77.112C18.2721 77.4549 19.468 78.3191 20.2281 79.5236L28.2671 93.4557C28.4367 93.7497 28.7828 93.8932 29.1107 93.8053C29.4386 93.7175 29.6667 93.4204 29.6667 93.0809L29.6667 36.392C29.7554 34.9949 30.3712 33.6834 31.3898 32.7232C32.4136 31.758 33.7671 31.2206 35.1736 31.2206C36.5801 31.2206 37.9335 31.758 38.9573 32.7232C39.9759 33.6834 40.5917 34.9949 40.6805 36.392V68.1943C40.6805 68.6086 41.0163 68.9443 41.4305 68.9443C41.8447 68.9443 42.1805 68.6086 42.1805 68.1943C42.1805 66.7357 42.7596 65.3368 43.7903 64.3055C44.821 63.2742 46.2188 62.6949 47.6763 62.6949C49.1337 62.6949 50.5315 63.2742 51.5622 64.3055C52.5929 65.3368 53.1721 66.7357 53.1721 68.1943L53.1721 72.0614L53.1721 72.0641C53.1721 72.4778 53.507 72.8134 53.9207 72.8141C54.3344 72.8148 54.6706 72.4804 54.6721 72.0667C54.6772 70.6089 55.2583 69.2124 56.2884 68.1817C57.318 67.1515 58.7127 66.5703 60.1686 66.5647C61.6337 66.5675 63.0396 67.144 64.0853 68.171C64.5998 68.6842 65.0081 69.294 65.2866 69.9654C65.5653 70.6375 65.7086 71.3581 65.7081 72.0858V72.0863V75.667ZM66.4581 72.5139V72.0863V72.5139Z" fill="white" stroke="#D93284" stroke-width="1.5" stroke-linejoin="round"/>
<path d="M76.3942 117.122H25.6713C24.5668 117.122 23.6713 118.017 23.6713 119.122V139.163C23.6713 140.268 24.5668 141.163 25.6713 141.163H76.3942C77.4988 141.163 78.3942 140.268 78.3942 139.163V119.122C78.3942 118.017 77.4988 117.122 76.3942 117.122Z" fill="#D93284"/>
<defs>
<filter id="filter0_f_317_3378" x="0" y="0" width="69.7647" height="69.7647" filterUnits="userSpaceOnUse" color-interpolation-filters="sRGB">
<feFlood flood-opacity="0" result="BackgroundImageFix"/>
<feBlend mode="normal" in="SourceGraphic" in2="BackgroundImageFix" result="shape"/>
<feGaussianBlur stdDeviation="2" result="effect1_foregroundBlur_317_3378"/>
</filter>
<radialGradient id="paint0_radial_317_3378" cx="0" cy="0" r="1" gradientUnits="userSpaceOnUse" gradientTransform="translate(34.8824 34.8824) rotate(90) scale(30.8824)">
<stop offset="0.25" stop-color="white"/>
<stop offset="1" stop-color="#FF00AB" stop-opacity="0.1"/>
</radialGradient>
</defs>
</svg>
