<svg width="70" height="112" viewBox="0 0 70 112" fill="none" xmlns="http://www.w3.org/2000/svg">
<path d="M56.7081 45.667C56.7081 46.0812 57.0439 46.417 57.4581 46.417C57.8723 46.417 58.2081 46.0812 58.2081 45.667C58.2081 44.2083 58.7872 42.8094 59.8179 41.7781C60.8486 40.7468 62.2464 40.1675 63.7039 40.1675C65.1613 40.1675 66.5591 40.7468 67.5898 41.7781C68.6205 42.8094 69.1997 44.2083 69.1997 45.667C69.1997 47.8999 69.1886 50.1666 69.1775 52.4326L69.1774 52.4391C69.1663 54.7023 69.1552 56.9649 69.1552 59.1889C69.1552 59.2033 69.1556 59.2177 69.1565 59.2321C69.4079 63.583 69.152 67.9484 68.3938 72.24C68.2005 72.9906 67.3657 76.4534 66.4492 80.2548C65.9134 82.4772 65.3497 84.8153 64.8699 86.7948H18.1348C14.0755 78.6955 6.25671 63.1419 4.05952 59.1839C4.05892 59.1828 4.05832 59.1817 4.05773 59.1806L3.63893 58.4087C3.63532 58.402 3.6316 58.3954 3.62779 58.3888L1.67967 55.0441C1.01655 53.7839 0.865563 52.3159 1.25869 50.9467C1.65317 49.5728 2.56471 48.4056 3.80145 47.6905C5.03818 46.9754 6.50381 46.7681 7.89013 47.112C9.2721 47.4549 10.468 48.3191 11.2281 49.5236L19.2671 63.4557C19.4367 63.7497 19.7828 63.8932 20.1107 63.8053C20.4386 63.7175 20.6667 63.4204 20.6667 63.0809L20.6667 6.39199C20.7554 4.99488 21.3712 3.6834 22.3898 2.72317C23.4136 1.75802 24.7671 1.22058 26.1736 1.22058C27.5801 1.22058 28.9335 1.75801 29.9573 2.72317C30.9759 3.6834 31.5917 4.99488 31.6805 6.39199L31.6805 38.1943C31.6805 38.6086 32.0163 38.9443 32.4305 38.9443C32.8447 38.9443 33.1805 38.6086 33.1805 38.1943C33.1805 36.7357 33.7596 35.3368 34.7903 34.3055C35.821 33.2742 37.2188 32.6949 38.6763 32.6949C40.1337 32.6949 41.5315 33.2742 42.5622 34.3055C43.5929 35.3368 44.1721 36.7357 44.1721 38.1943L44.1721 42.0614L44.1721 42.0641C44.1721 42.4778 44.507 42.8134 44.9207 42.8141C45.3344 42.8148 45.6706 42.4804 45.6721 42.0667C45.6772 40.6089 46.2583 39.2124 47.2884 38.1817C48.318 37.1515 49.7127 36.5703 51.1686 36.5647C52.6337 36.5675 54.0396 37.144 55.0853 38.171C55.5998 38.6842 56.0081 39.294 56.2866 39.9654C56.5653 40.6375 56.7086 41.3581 56.7081 42.0858V42.0863V45.667ZM57.4581 42.5139V42.0863V42.5139Z" fill="white" stroke="#D93284" stroke-width="1.5" stroke-linejoin="round"/>
<path d="M67.3942 87.1218H16.6713C15.5668 87.1218 14.6713 88.0172 14.6713 89.1218L14.6713 109.163C14.6713 110.268 15.5668 111.163 16.6713 111.163H67.3942C68.4988 111.163 69.3942 110.268 69.3942 109.163V89.1218C69.3942 88.0172 68.4988 87.1218 67.3942 87.1218Z" fill="#D93284"/>
</svg>
