<svg width="129" height="175" viewBox="0 0 129 175" fill="none" xmlns="http://www.w3.org/2000/svg">
<g filter="url(#filter0_f_55_4524)">
<circle cx="44.1026" cy="48.7378" r="35" transform="rotate(-18 44.1026 48.7378)" fill="url(#paint0_radial_55_4524)"/>
</g>
<g filter="url(#filter1_f_55_4524)">
<circle cx="44.1026" cy="48.7378" r="35" transform="rotate(-18 44.1026 48.7378)" fill="url(#paint1_radial_55_4524)"/>
</g>
<path d="M91.7072 81.8714C91.8352 82.2654 92.2583 82.481 92.6522 82.353C93.0461 82.225 93.2617 81.8018 93.1337 81.4079C92.6147 79.8104 92.7511 78.0724 93.513 76.5762C94.2748 75.08 95.5995 73.9482 97.1956 73.4295C98.7918 72.9109 100.529 73.0479 102.025 73.8106C103.52 74.5733 104.652 75.8992 105.171 77.4966C105.953 79.9037 106.735 82.351 107.517 84.7973L107.519 84.8046C108.3 87.2479 109.08 89.6901 109.859 92.087C109.864 92.1007 109.868 92.1143 109.874 92.1278C111.672 96.7378 112.927 101.542 113.614 106.442C113.667 107.309 113.98 111.336 114.324 115.759C114.527 118.373 114.741 121.125 114.919 123.445L64.4112 139.856C57.2105 132.559 43.2889 118.485 39.5294 114.983C39.5285 114.982 39.5276 114.981 39.5267 114.981L38.8042 114.295C38.8023 114.293 38.8004 114.291 38.7985 114.289C38.7948 114.286 38.7912 114.282 38.7875 114.279L35.5147 111.355C34.3392 110.211 33.6509 108.656 33.5942 107.016C33.5374 105.371 34.1203 103.769 35.2202 102.545C36.3201 101.322 37.8513 100.574 39.4919 100.457C41.128 100.341 42.7458 100.862 44.0069 101.912L57.5526 114.114C57.8048 114.342 58.1782 114.371 58.463 114.186C58.7477 114.001 58.8728 113.648 58.7679 113.325L38.9134 52.2195C38.5124 50.6571 38.7198 49.0006 39.4941 47.5857C40.2719 46.1644 41.5629 45.0943 43.1031 44.5938C44.6434 44.0934 46.3168 44.2003 47.7814 44.893C49.2395 45.5825 50.381 46.8008 50.975 48.3005L62.1137 82.5821C62.2417 82.976 62.6648 83.1916 63.0588 83.0636C63.4527 82.9356 63.6683 82.5125 63.5403 82.1186C63.0213 80.5211 63.1577 78.7831 63.9195 77.2869C64.6813 75.7907 66.0061 74.6588 67.6022 74.1402C69.1984 73.6216 70.9354 73.7586 72.4312 74.5213C73.9269 75.284 75.0589 76.6098 75.578 78.2073L76.9324 82.3759L76.9332 82.3784C77.0611 82.7718 77.4833 82.9875 77.877 82.8603C78.2707 82.7332 78.4871 82.3113 78.3606 81.9174C77.8476 80.3192 77.987 78.5831 78.7483 77.0879C79.5093 75.5932 80.83 74.4604 82.4224 73.9363C84.0277 73.418 85.7723 73.5491 87.2827 74.3018C88.0288 74.6806 88.693 75.2032 89.2369 75.8395C89.7813 76.4763 90.1946 77.2145 90.453 78.0115L90.4531 78.012L91.7072 81.8714ZM91.3866 78.4579L91.1664 77.7802L91.3866 78.4579Z" fill="white" stroke="#E03FAB" stroke-width="1.5" stroke-linejoin="round"/>
<path d="M117.902 122.76L62.7223 140.689C61.6718 141.03 61.0969 142.159 61.4382 143.209L68.6219 165.318C68.9633 166.369 70.0916 166.944 71.1421 166.602L126.322 148.674C127.372 148.332 127.947 147.204 127.606 146.153L120.422 124.044C120.081 122.994 118.952 122.419 117.902 122.76Z" fill="#F060C0"/>
<defs>
<filter id="filter0_f_55_4524" x="5.09314" y="9.72833" width="78.0189" height="78.0189" filterUnits="userSpaceOnUse" color-interpolation-filters="sRGB">
<feFlood flood-opacity="0" result="BackgroundImageFix"/>
<feBlend mode="normal" in="SourceGraphic" in2="BackgroundImageFix" result="shape"/>
<feGaussianBlur stdDeviation="2" result="effect1_foregroundBlur_55_4524"/>
</filter>
<filter id="filter1_f_55_4524" x="5.09314" y="9.72833" width="78.0189" height="78.0189" filterUnits="userSpaceOnUse" color-interpolation-filters="sRGB">
<feFlood flood-opacity="0" result="BackgroundImageFix"/>
<feBlend mode="normal" in="SourceGraphic" in2="BackgroundImageFix" result="shape"/>
<feGaussianBlur stdDeviation="2" result="effect1_foregroundBlur_55_4524"/>
</filter>
<radialGradient id="paint0_radial_55_4524" cx="0" cy="0" r="1" gradientUnits="userSpaceOnUse" gradientTransform="translate(44.1026 48.7378) rotate(90) scale(35)">
<stop offset="0.447917" stop-color="#07D2FF"/>
<stop offset="1" stop-color="#FF00F5" stop-opacity="0.1"/>
</radialGradient>
<radialGradient id="paint1_radial_55_4524" cx="0" cy="0" r="1" gradientUnits="userSpaceOnUse" gradientTransform="translate(44.1026 48.7378) rotate(90) scale(35)">
<stop offset="0.25" stop-color="#E1FEC6"/>
<stop offset="1" stop-color="#FF00AB" stop-opacity="0"/>
</radialGradient>
</defs>
</svg>
