<svg width="106" height="106" viewBox="0 0 106 106" fill="none" xmlns="http://www.w3.org/2000/svg">
<g filter="url(#filter0_bi_1245_5418)">
<circle cx="53" cy="53" r="52" fill="black" fill-opacity="0.7"/>
<circle cx="53" cy="53" r="52.5" stroke="white" stroke-opacity="0.24"/>
</g>
<path d="M57 39C57 37.8954 57.8954 37 59 37H65C66.1046 37 67 37.8954 67 39V71C67 72.1046 66.1046 73 65 73H59C57.8954 73 57 72.1046 57 71V39Z" fill="white"/>
<path d="M39 39C39 37.8954 39.8954 37 41 37H47C48.1046 37 49 37.8954 49 39V71C49 72.1046 48.1046 73 47 73H41C39.8954 73 39 72.1046 39 71V39Z" fill="white"/>
<defs>
<filter id="filter0_bi_1245_5418" x="-20" y="-20" width="146" height="146" filterUnits="userSpaceOnUse" color-interpolation-filters="sRGB">
<feFlood flood-opacity="0" result="BackgroundImageFix"/>
<feGaussianBlur in="BackgroundImageFix" stdDeviation="10"/>
<feComposite in2="SourceAlpha" operator="in" result="effect1_backgroundBlur_1245_5418"/>
<feBlend mode="normal" in="SourceGraphic" in2="effect1_backgroundBlur_1245_5418" result="shape"/>
<feColorMatrix in="SourceAlpha" type="matrix" values="0 0 0 0 0 0 0 0 0 0 0 0 0 0 0 0 0 0 127 0" result="hardAlpha"/>
<feMorphology radius="1.46045" operator="dilate" in="SourceAlpha" result="effect2_innerShadow_1245_5418"/>
<feOffset dx="-0.730227" dy="0.730227"/>
<feGaussianBlur stdDeviation="0.365113"/>
<feComposite in2="hardAlpha" operator="arithmetic" k2="-1" k3="1"/>
<feColorMatrix type="matrix" values="0 0 0 0 1 0 0 0 0 1 0 0 0 0 1 0 0 0 0.35 0"/>
<feBlend mode="normal" in2="shape" result="effect2_innerShadow_1245_5418"/>
</filter>
</defs>
</svg>
