<svg width="57" height="98" viewBox="0 0 57 98" fill="none" xmlns="http://www.w3.org/2000/svg">
<path d="M35.9653 88.5112C33.9422 90.5037 31.474 91.5 28.5607 91.5C25.6474 91.5 23.1387 90.5037 21.0347 88.5112C19.0116 86.439 18 83.9683 18 81.0991C18 78.1502 19.0116 75.6796 21.0347 73.687C23.1387 71.6945 25.6474 70.6983 28.5607 70.6983C31.474 70.6983 33.9422 71.6945 35.9653 73.687C37.9884 75.6796 39 78.1502 39 81.0991C39 83.9683 37.9884 86.439 35.9653 88.5112ZM21.8844 62.3298L18.1214 6.5H39L35.1156 62.3298H21.8844Z" fill="#D93284"/>
</svg>
